<svg xmlns="http://www.w3.org/2000/svg" width="90" height="90" fill="none" viewBox="0 0 90 90"><path fill="#fff" d="M89.7114 45.6684C89.2524 40.0202 87.1195 34.6372 83.5852 30.2075C80.051 25.7778 75.276 22.5027 69.8707 20.8009C68.7069 14.56 65.2543 8.97867 60.1897 5.15079C55.125 1.32291 48.8134 -0.475568 42.4917 0.107824C36.1701 0.691216 30.2942 3.61442 26.0156 8.30454C21.737 12.9947 19.3642 19.1136 19.3622 25.4621C19.3622 26.0316 19.4102 26.5876 19.4477 27.1482C16.6533 29.7447 14.4097 32.8766 12.8502 36.3577C11.2907 39.8387 10.4471 43.5979 10.3696 47.4115L0.651607 59.5665C0.300665 60.0077 0.0812606 60.539 0.018584 61.0992C-0.0440925 61.6595 0.0524999 62.2261 0.297271 62.734C0.542042 63.2418 0.925069 63.6703 1.40238 63.9703C1.87968 64.2704 2.43192 64.4297 2.99568 64.43H7.37208V73.4226C7.37446 75.4094 8.16475 77.3141 9.56961 78.719C10.9745 80.1238 12.8792 80.9141 14.8659 80.9165H22.3598V88.4103C22.3598 88.8078 22.5177 89.189 22.7987 89.4701C23.0798 89.7512 23.461 89.9091 23.8585 89.9091H79.313C79.7104 89.9091 80.0917 89.7512 80.3727 89.4701C80.6538 89.189 80.8117 88.8078 80.8117 88.4103V68.703C83.9397 65.7859 86.3657 62.1976 87.9072 58.2079C89.4486 54.2182 90.0655 49.9309 89.7114 45.6684ZM44.8413 2.98054C49.2877 2.98054 53.6343 4.29906 57.3313 6.76936C61.0284 9.23966 63.9099 12.7508 65.6115 16.8588C67.3131 20.9667 67.7583 25.487 66.8908 29.848C66.0234 34.209 63.8822 38.2148 60.7381 41.3589C57.594 44.503 53.5882 46.6442 49.2272 47.5116C44.8662 48.3791 40.3459 47.9338 36.238 46.2323C32.13 44.5307 28.6189 41.6492 26.1486 37.9521C23.6783 34.2551 22.3598 29.9085 22.3598 25.4621C22.3665 19.5017 24.7373 13.7873 28.9519 9.57267C33.1665 5.35803 38.8809 2.98728 44.8413 2.98054ZM23.8585 77.9189H14.8659C13.6734 77.9189 12.5298 77.4452 11.6866 76.602C10.8433 75.7588 10.3696 74.6151 10.3696 73.4226V62.9313C10.3696 62.5338 10.2117 62.1525 9.93064 61.8715C9.64957 61.5904 9.26835 61.4325 8.87085 61.4325H2.99718L13.0389 48.8743C13.2503 48.61 13.366 48.282 13.3672 47.9436C13.3704 41.6328 15.7173 35.548 19.9527 30.8696C20.7307 34.4228 22.2583 37.769 24.4333 40.6845C26.6083 43.6 29.3806 46.0176 32.5649 47.7757L23.1376 59.5665C22.7869 60.0074 22.5676 60.5383 22.5047 61.0981C22.4419 61.658 22.5381 62.2242 22.7823 62.7319C23.0265 63.2396 23.4089 63.6682 23.8855 63.9686C24.3622 64.2689 24.9138 64.4288 25.4772 64.43H29.8536V73.4226C29.856 75.4094 30.6463 77.3141 32.0511 78.719C33.456 80.1238 35.3607 80.9141 37.3474 80.9165H44.8413V86.9116H25.3573V79.4177C25.3573 79.0202 25.1994 78.639 24.9183 78.3579C24.6372 78.0769 24.256 77.9189 23.8585 77.9189ZM78.3148 66.924C78.1573 67.0646 78.0313 67.2369 77.945 67.4295C77.8588 67.6222 77.8142 67.8309 77.8142 68.0421V86.9116H47.8388V79.4177C47.8388 79.0202 47.6809 78.639 47.3998 78.3579C47.1188 78.0769 46.7376 77.9189 46.3401 77.9189H37.3474C36.155 77.9189 35.0113 77.4452 34.1681 76.602C33.3249 75.7588 32.8511 74.6151 32.8511 73.4226V62.9313C32.8511 62.5338 32.6932 62.1525 32.4122 61.8715C32.1311 61.5904 31.7499 61.4325 31.3524 61.4325H25.4787L35.3526 49.0841C39.2168 50.6445 43.4051 51.2318 47.5495 50.7944C51.6938 50.3569 55.6672 48.9081 59.1205 46.5753C62.5737 44.2425 65.401 41.0971 67.3539 37.4157C69.3068 33.7342 70.3255 29.6294 70.3203 25.4621C70.3203 24.9974 70.2754 24.5433 70.2499 24.0847C74.3564 25.6193 77.9973 28.1879 80.8202 31.5419C83.6431 34.8959 85.5524 38.9218 86.3635 43.23C87.1745 47.5381 86.8598 51.9827 85.4498 56.1336C84.0397 60.2845 81.5821 64.0012 78.3148 66.924Z"/></svg>