<svg width="86" height="77" viewBox="0 0 86 77" fill="none" xmlns="http://www.w3.org/2000/svg">
<path d="M84.5606 0.000104756H79.6984C76.0298 -0.0100239 72.3956 0.714426 69.0063 2.13152C65.6169 3.54861 62.5397 5.6302 59.9527 8.2558C57.1818 11.0561 54.6973 14.1311 52.5369 17.434H47.4871C45.3612 17.4282 43.2553 17.848 41.2912 18.6692C39.3271 19.4904 37.5438 20.6966 36.0447 22.2181C35.7748 22.4905 35.6231 22.8601 35.6231 23.2454C35.6231 23.6307 35.7748 24.0002 36.0447 24.2726L41.802 30.084C42.072 30.3564 42.4381 30.5095 42.8199 30.5095H46.1078C46.0308 30.7317 45.9543 30.9542 45.88 31.1773L41.802 35.2935C35.3526 41.8076 29.4921 48.8898 24.2903 56.4557C22.9909 55.3601 21.468 54.5675 19.8302 54.1342C18.1925 53.701 16.4801 53.6378 14.8154 53.9493C13.1507 54.2608 11.5746 54.9393 10.1995 55.9362C8.82434 56.9332 7.68412 58.2242 6.86011 59.7171C5.61659 59.4572 4.32707 59.5337 3.1223 59.939C1.91754 60.3443 0.840363 61.064 0 62.025L2.15829 63.9476C2.5637 63.484 3.06212 63.1126 3.62051 62.8582C4.17889 62.6037 4.78449 62.472 5.39715 62.4717C5.5182 62.4717 5.63829 62.4778 5.75764 62.4877C5.51772 63.4318 5.39661 64.4027 5.39715 65.3774H8.27582C8.27521 63.6955 8.75682 62.0494 9.66252 60.6377C10.5682 59.226 11.8593 58.1091 13.38 57.4216C14.9007 56.7341 16.586 56.5056 18.2325 56.7635C19.879 57.0214 21.4164 57.7547 22.6592 58.875C22.1973 59.5747 21.7405 60.2777 21.2889 60.9839L21.032 61.387C19.972 63.0596 18.5111 64.4353 16.7846 65.3867C15.058 66.3382 13.1216 66.8347 11.1545 66.8302V69.7359C13.6038 69.7414 16.0149 69.1233 18.1647 67.9387C20.3145 66.754 22.1335 65.0411 23.4533 62.9585L23.7102 62.5554C29.2505 53.8619 35.6559 45.7622 42.8267 38.3824L47.9809 43.5849L44.6807 46.9162C41.7387 49.8859 40.086 53.9135 40.086 58.1132C40.086 62.3129 41.7387 66.3406 44.6807 69.3103L46.7163 67.2557C44.808 65.339 43.5517 62.8603 43.1286 60.1767C43.9233 59.7768 44.7987 59.5678 45.6867 59.5661C46.5746 59.5644 47.4509 59.77 48.247 60.1668C49.0431 60.5636 49.7375 61.1409 50.2759 61.8536C50.8143 62.5663 51.1822 63.395 51.3506 64.275C50.7116 64.4266 50.0851 64.6274 49.4764 64.8756L50.5566 67.5689C52.0864 66.9462 53.7441 66.7117 55.3845 66.8862C57.0249 67.0607 58.5979 67.6388 59.9654 68.5698C61.3329 69.5008 62.4532 70.7562 63.2281 72.226C64.003 73.6958 64.4088 75.3351 64.4099 77H67.2885C67.2847 73.5334 65.9186 70.2098 63.4901 67.7586C61.0616 65.3073 57.769 63.9285 54.3345 63.9245C54.2938 63.9245 54.2535 63.9271 54.2128 63.9274C54.0057 62.6905 53.5366 61.5133 52.8376 60.476C52.1386 59.4388 51.2261 58.566 50.1624 57.9172C49.0987 57.2684 47.9089 56.8589 46.6741 56.7167C45.4393 56.5744 44.1886 56.7027 43.0075 57.0929C43.2386 54.0241 44.555 51.1415 46.7164 48.9707L55.1122 40.4961C55.3333 40.4211 55.5537 40.3439 55.7739 40.2662V43.5849C55.7739 43.9702 55.9255 44.3398 56.1954 44.6122L61.9527 50.4235C62.2226 50.696 62.5888 50.8491 62.9705 50.8491C63.3523 50.8491 63.7184 50.696 63.9884 50.4235C65.4957 48.9104 66.6907 47.1104 67.5042 45.128C68.3178 43.1455 68.7337 41.0198 68.7279 38.874V33.7767C72.0002 31.5961 75.0466 29.0883 77.8211 26.2914C80.4222 23.6801 82.4844 20.574 83.8883 17.1529C85.2922 13.7318 86.0099 10.0636 85.9999 6.36066V1.45293C85.9999 1.06762 85.8482 0.69809 85.5783 0.425632C85.3084 0.153175 84.9423 0.000108609 84.5606 0.000104756ZM83.1212 2.90576V6.36066C83.1229 8.60686 82.8296 10.8434 82.2489 13.0118C80.1173 12.7708 78.131 11.803 76.6182 10.2682L75.8272 9.46982C74.3067 7.94278 73.3478 5.93779 73.1091 3.78619C75.2573 3.20009 77.4731 2.90403 79.6984 2.90576H83.1212ZM43.416 27.6038L39.1521 23.2999C41.5112 21.3762 44.4544 20.3309 47.4871 20.3397H50.7509C49.4052 22.6765 48.2196 25.1036 47.2022 27.6038H43.416ZM44.8554 36.3208L47.1379 34.017L52.299 39.2265L50.0165 41.5303L44.8554 36.3208ZM65.8492 38.874C65.8579 41.9351 64.8223 44.9059 62.9164 47.2871L58.6525 42.9832V39.1615C61.1296 38.1346 63.5341 36.9378 65.8492 35.5794V38.874ZM75.7854 24.2369C69.8441 30.2189 62.6438 34.7728 54.7194 37.5602L48.7887 31.574C51.5502 23.5752 56.0618 16.3073 61.9884 10.3103C64.3683 7.90019 67.2067 6.00098 70.3327 4.72694C70.7478 7.30386 71.9582 9.68274 73.7915 11.5244L74.5826 12.3228C76.4071 14.1733 78.7639 15.3952 81.3169 15.8141C80.0546 18.9695 78.173 21.8345 75.7854 24.2369Z" fill="white"/>
</svg>
